<svg class="icon" viewBox="0 0 1024 1024" xmlns="http://www.w3.org/2000/svg" width="64" height="64"><defs><style/></defs><path d="M458.147 206.067h107.578V817.87H458.147V206.067z"/><path d="M339.947 206.067c-13.311-13.311-13.311-34.814 0-48.125L487.97 9.92c13.31-13.31 34.813-13.31 48.124 0l148.023 148.023c13.311 13.311 13.311 34.814 0 48.125h-344.17zm0 611.802c-13.311 13.311-13.311 34.814 0 48.125l148.023 148.023c13.31 13.31 34.813 13.31 48.124 0l148.023-148.023c13.311-13.311 13.311-34.814 0-48.125h-344.17zm477.922-477.922c13.311-13.311 34.814-13.311 48.125 0l148.023 148.023c13.31 13.31 13.31 34.813 0 48.124L865.994 684.117c-13.311 13.311-34.814 13.311-48.125 0v-344.17zm-611.802 0c-13.311-13.311-34.814-13.311-48.125 0L9.983 487.906c-13.31 13.31-13.31 34.813 0 48.124l148.023 148.023c13.311 13.311 34.814 13.311 48.125 0V339.947z"/><path d="M206.067 458.147H817.87v107.578H206.067V458.147z"/></svg>